<?xml version="1.0" encoding="UTF-8"?>
<!DOCTYPE svg PUBLIC "-//W3C//DTD SVG 1.1//EN" "http://www.w3.org/Graphics/SVG/1.1/DTD/svg11.dtd">
<!-- Creator: CorelDRAW -->
<svg xmlns="http://www.w3.org/2000/svg" xml:space="preserve" width="11.4402mm" height="12.6945mm" version="1.1" style="shape-rendering:geometricPrecision; text-rendering:geometricPrecision; image-rendering:optimizeQuality; fill-rule:evenodd; clip-rule:evenodd"
viewBox="0 0 1129.94 1253.82"
 xmlns:xlink="http://www.w3.org/1999/xlink"
 xmlns:xodm="http://www.corel.com/coreldraw/odm/2003">
 <defs>
  <style type="text/css">
   <![CDATA[
    .fil0 {fill:#FF6200}
   ]]>
  </style>
 </defs>
 <g id="Слой_x0020_1">
  <metadata id="CorelCorpID_0Corel-Layer"/>
  <g id="_2011963759056">
   <path class="fil0" d="M186.61 80.11c-88.06,0 -132.09,0 -159.23,27.39 -19.2,19.2 -24.83,46.59 -26.62,91.9 -0.77,19.2 -0.77,41.22 -0.77,67.58l0 799.97c0,26.11 0,48.39 0.77,67.58 1.79,45.32 7.43,72.7 26.62,91.9 16.39,16.39 38.91,23.04 73.22,25.6 22.79,1.79 50.94,1.79 86.01,1.79l53.25 0 30.46 -72.45 462.83 -1100.76 -546.79 0 0.26 -0.5zm166.65 752.11l-71.68 167.17 -35.59 -90.62 -169.72 -431.6 417.27 -165.88 101.12 -40.19 -72.7 169.47c-91.39,34.3 -182.78,62.72 -274.16,97.28 35.07,96.25 70.39,198.4 105.72,294.65l-0.26 -0.27z"/>
   <path class="fil0" d="M943.32 1173.71c88.06,0 132.09,0 159.23,-27.39 19.2,-19.2 24.83,-46.59 26.62,-91.9 0.77,-19.2 0.77,-41.22 0.77,-67.58l0 -799.97c0,-26.11 0,-48.39 -0.77,-67.58 -1.79,-45.32 -7.43,-72.7 -26.62,-91.9 -16.39,-16.39 -38.91,-23.04 -73.22,-25.6 -22.79,-1.79 -50.94,-1.79 -86.01,-1.79l-53.25 0 -30.46 72.45 -462.83 1100.76 546.79 0 -0.26 0.5zm-166.64 -752.11l71.68 -167.17 35.59 90.62 169.72 431.6 -417.27 165.88 -101.12 40.19 72.96 -169.47c91.39,-34.3 182.78,-62.72 274.16,-97.28 -35.33,-96.25 -70.39,-198.4 -105.72,-294.65l0 0.27z"/>
  </g>
 </g>
</svg>
